<svg viewBox="0 0 1200 1600" xmlns="http://www.w3.org/2000/svg" xml:space="preserve" style="fill-rule:evenodd;clip-rule:evenodd;stroke-linejoin:round;stroke-miterlimit:2"><path d="m365.79 797.68-2.94-50.9-.13.01c.17-.01 17.22-1.26 39.06-10 28.33-11.33 51.27-29.42 68.17-53.77 8.03-11.56 23.91-14.43 35.48-6.4 11.56 8.03 14.43 23.91 6.4 35.48-55.16 79.46-142.35 85.37-146.04 85.58Z" style="fill:#4682b4;fill-rule:nonzero"/><path d="M360.28 761.8c12.5 29.45-1.74 37.68-7.99 38.89-6.25 1.21-18.54 3.08-18.54 3.08s2.26 20.76-27.49 25.86c-29.75 5.1-88.89 6.49-95 11.41-6.11 4.92-26.8-53.18-26.8-53.18s93.3-24.52 96.86-35.81c3.56-11.29-35.06-11.87-38.25-19.23-3.19-7.36-13.5-24.18 10.26-22.92 23 1.22 89.6 43.94 89.6 43.94s10.56-8.05 17.35 7.96Z" style="fill:#fff;fill-rule:nonzero"/><path d="M207.26 847.77c-1.33 0-2.64-.11-3.9-.35-2-.39-8.09-1.57-11.27-7.16-2.59-4.55-2.47-10.62.38-18.55 5.22-14.58 24.04-15.97 24.83-16.02 3.52-.23 6.54 2.44 6.77 5.95a6.37 6.37 0 0 1-5.95 6.77c-.09.01-11.3 1.01-13.66 7.6-2.22 6.21-1.31 7.93-1.3 7.95 0 0 .38.52 2.62.95 2.56.5 7.67-.61 11.64-2.52 5.1-2.45 19.82-7.75 30.34-7.54 3.52.07 6.31 2.98 6.24 6.5-.07 3.52-3.01 6.32-6.5 6.24-7.39-.14-19.7 3.95-24.55 6.28-4.23 2.04-10.18 3.9-15.69 3.9Z" style="fill:#4682b4;fill-rule:nonzero"/><path d="M201.7 825.11c-1.91 0-3.8-.86-5.05-2.48-2.5-3.15-10.15-14.18-5.96-26.79 3.96-11.92 17.09-20.89 39.01-26.66 32.35-8.52 42.58-17.46 44.39-20.46-1.17-.71-4.54-2.16-12.71-2.41-15.46-.48-29.95-10.39-31.62-21.63-.61-4.1-.28-14.23 15.98-19.75 18.6-6.31 29.25.83 40.53 8.39 6 4.02 12.79 8.57 21.91 11.9 12.36 4.51 35.4 21.23 35.33 41.26a6.37 6.37 0 0 1-6.37 6.35h-.03c-3.52-.01-6.36-2.88-6.35-6.4.05-12.54-17.78-25.89-26.95-29.23-10.57-3.85-18.05-8.87-24.64-13.29-10.42-6.98-16.71-11.2-29.34-6.91-3.84 1.3-7.81 3.51-7.47 5.8.22 1.46 1.83 4.05 5.63 6.51 3.96 2.56 8.98 4.11 13.78 4.26 10.87.34 24.08 2.94 25.27 13.41.76 6.66-4.18 13.2-14.68 19.43-9.34 5.55-22.97 10.77-39.41 15.09-21.79 5.74-28.43 13.15-30.16 18.36-2.18 6.54 2.37 12.98 3.81 14.8l.18.24c2.12 2.81 1.56 6.81-1.25 8.92-1.15.88-2.5 1.29-3.83 1.29Z" style="fill:#4682b4;fill-rule:nonzero"/><path d="M345.28 808.51c-3.63 0-6.21-.54-6.46-.59l2.71-12.45c2.41.49 9.61.96 13.55-2.84 4.4-4.24 4.04-12.86 2.96-19.34-.89-5.33-2.92-12.16-7.51-14.39-4.88-2.37-11.31.92-11.37.96l-6.12-11.18c1.23-.68 12.35-6.45 23.06-1.25 7.62 3.7 12.5 11.69 14.52 23.76 2.32 13.89.04 24.22-6.77 30.7-5.77 5.48-13.28 6.62-18.57 6.62ZM273.1 795.25c-1.08 0-2.18-.28-3.18-.86a6.36 6.36 0 0 1-2.33-8.69c.43-.74 10.67-18.25 27.9-22.59 8.95-2.25 17.96-.62 26.79 4.86a6.363 6.363 0 0 1 2.05 8.77 6.387 6.387 0 0 1-8.78 2.06c-5.84-3.62-11.37-4.72-16.9-3.34-11.96 2.98-19.95 16.48-20.02 16.61a6.395 6.395 0 0 1-5.53 3.18Z" style="fill:#4682b4;fill-rule:nonzero"/><path d="m120.24 777.67 1.98 18.13 69.18 31.07 167.76-52.1c-.13-1.23-2.59-18.06-2.59-18.06l-236.33 20.96Z" style="fill:#fff;fill-rule:nonzero"/><path d="m188.81 808.8 167.75-52.1-83.97-26.47-152.96 47.5 69.18 31.07Z" style="fill:#fff;fill-rule:nonzero"/><path d="M188.81 815.17c-.89 0-1.78-.19-2.61-.56l-69.18-31.07a6.37 6.37 0 0 1-3.75-6.2 6.37 6.37 0 0 1 4.47-5.7l152.97-47.5c1.24-.38 2.57-.38 3.81.01l83.97 26.48c2.66.84 4.46 3.31 4.46 6.09a6.365 6.365 0 0 1-4.48 6.07l-167.76 52.1c-.63.19-1.27.28-1.9.28Zm-51.2-36.35L189.22 802l146.01-45.34-62.65-19.75-134.97 41.91Z" style="fill:#4682b4;fill-rule:nonzero"/><path d="m119.63 777.73 69.18 31.07-57.92-188.49-63.28-17.34 52.02 174.76Z" style="fill:#fff;fill-rule:nonzero"/><path d="M188.81 815.17c-.88 0-1.77-.18-2.61-.56l-69.18-31.07a6.386 6.386 0 0 1-3.5-4L61.5 604.79a6.357 6.357 0 0 1 1.55-6.27 6.39 6.39 0 0 1 6.24-1.69l63.28 17.34c2.1.58 3.77 2.19 4.41 4.27l57.92 188.49c.73 2.39 0 4.99-1.87 6.65a6.374 6.374 0 0 1-4.22 1.59Zm-63.91-42.05 53.68 24.11-52.76-171.69-48.83-13.38 47.91 160.96ZM262.63 745.75l9.55-2.96 6.15 1.84-9.54 2.96-6.16-1.84ZM238.11 753.37l9.54-2.97 6.16 1.84-9.55 2.97-6.15-1.84ZM248.9 757.87l9.54-2.97 6.16 1.84-9.55 2.97-6.15-1.84ZM259.69 762.37l9.54-2.97 6.16 1.85-9.55 2.96-6.15-1.84ZM270.47 766.87l9.55-2.96 6.16 1.84-9.55 2.96-6.16-1.84ZM212.41 761.35l9.55-2.97 6.15 1.84-9.55 2.97-6.15-1.84ZM223.2 765.85l9.55-2.97 6.15 1.84-9.55 2.97-6.15-1.84ZM233.99 770.35l9.55-2.96 6.15 1.84-9.55 2.96-6.15-1.84ZM244.78 774.85l9.55-2.96 6.15 1.84-9.55 2.96-6.15-1.84ZM186.71 769.33l9.55-2.97 6.15 1.84-9.55 2.97-6.15-1.84ZM197.5 773.83l9.55-2.97 6.15 1.84-9.55 2.97-6.15-1.84ZM208.29 778.33l9.55-2.96 6.15 1.84-9.55 2.96-6.15-1.84ZM219.08 782.83l9.55-2.96 6.15 1.84-9.55 2.96-6.15-1.84ZM271.81 749.47l9.55-2.97 29.54 9.91-9.55 2.97-29.54-9.91Z" style="fill:#4682b4;fill-rule:nonzero"/><path d="M191.4 833.24c-.89 0-1.78-.19-2.61-.56l-69.18-31.07a6.374 6.374 0 0 1-3.72-5.12l-1.98-18.13a6.385 6.385 0 0 1 5.64-7.03c3.5-.38 6.64 2.15 7.03 5.64l1.58 14.5 63.65 28.59 160.28-49.78c-.55-3.81-1.29-8.94-1.83-12.66a6.375 6.375 0 0 1 5.39-7.23 6.37 6.37 0 0 1 7.23 5.39c.41 2.83 2.48 17.01 2.62 18.29a6.378 6.378 0 0 1-4.45 6.78l-167.76 52.1c-.62.19-1.26.29-1.89.29Z" style="fill:#4682b4;fill-rule:nonzero"/><path d="M191.39 833.24a6.38 6.38 0 0 1-6.33-5.68l-1.98-18.13a6.385 6.385 0 0 1 5.64-7.03c3.49-.38 6.64 2.15 7.03 5.64l1.98 18.13c.38 3.5-2.15 6.64-5.64 7.03-.24.02-.47.04-.7.04Z" style="fill:#4682b4;fill-rule:nonzero"/><path d="M279.48 811.37c-20.63-.64-44.54-17.34-56.69-9.46-12.15 7.88 11.9 33.18 30.87 32.27 18.97-.91 50.35-7.05 50.35-7.05l-3.22-14.45-21.31-1.31Z" style="fill:#fff;fill-rule:nonzero"/><path d="M265.02 838.99c-1.95 0-3.92-.02-5.94-.06-8.36-.17-21.43-3.77-29.14-8.02-3.58-1.97-21.34-12.44-19.79-25.04.54-4.39 3.59-10.26 15.03-13.28 10.89-2.87 22.31 1.28 32.39 4.95 7.4 2.69 14.38 5.24 19.79 4.72 3.48-.33 6.62 2.23 6.95 5.73.33 3.5-2.23 6.62-5.74 6.95-8.28.79-16.96-2.37-25.36-5.43-8.73-3.18-17.75-6.46-24.78-4.61-4.23 1.12-5.41 2.32-5.64 2.59.1 1.78 4.72 7.52 13.29 12.24 5.88 3.24 16.97 6.31 23.25 6.44 45.38.93 62.71-9.1 69.26-17.69 5.99-7.85 3.74-15.77 3.64-16.11-1.08-3.35.77-6.91 4.12-7.99 3.34-1.08 6.95.79 8.03 4.15.18.57 4.4 14.16-5.41 27.34-11.39 15.36-36.27 23.12-73.95 23.12Z" style="fill:#4682b4;fill-rule:nonzero"/><path d="M548.56 1210.43c-.83-10.03 16.2-15.61 34.4-15.32 61.8.97 41.79 28.03 41.79 28.03s10.09 27.85.44 41.13c-4.47 6.15 4.59 21.15-1.65 29.91-9 12.63-90.68 31.89-152.13 15.4-26.57-7.13-30.52-31.73-27.18-54.43 4.89-33.23 51.82-50.56 91.11-18.69 0 0 1.61-11.79 8.03-18.28 6.42-6.49 5.19-7.75 5.19-7.75Z" style="fill:#fff;fill-rule:nonzero"/><path d="M534.59 1246.01c-.28 0-.57-.02-.86-.06a6.37 6.37 0 0 1-5.46-7.17c3.09-22.96 19.62-27.44 20.32-27.62l3.16 12.35.12-.03c-.37.11-9.06 2.87-10.96 17-.45 3.21-3.18 5.53-6.32 5.53Z" style="fill:#4682b4;fill-rule:nonzero"/><path d="M524.73 1322.34c-17.19 0-36.41-1.62-54.96-6.6-25.37-6.81-36.67-28.65-31.84-61.51 2.81-19.08 20.71-35.96 42.58-40.14 13.36-2.55 47.31-3.5 74.02 42.76a6.375 6.375 0 1 1-11.04 6.38c-15.93-27.58-38.02-40.93-60.59-36.62-16.44 3.14-30.35 15.81-32.36 29.48-3.88 26.36 3.7 42.29 22.53 47.35 35.25 9.46 73.49 5.98 93.15 3.07 32.18-4.77 49.84-12.78 52.14-16.01 1.85-2.6.95-7.9.16-12.58-1.03-6.09-2.1-12.39 1.52-17.38 6.25-8.61 1.04-28.82-1.28-35.22l-1.16-3.21 2.03-2.75s3.07-4.42 1.27-7.97c-4.42-8.7-30.24-9.78-38.04-9.9-14.19-.23-24 3.23-27.09 6.54-.94 1-.89 1.6-.86 1.89.18 2.14 6.74 9.97 25.6 10.78 3.52.15 6.24 3.12 6.09 6.64-.15 3.52-3.13 6.25-6.64 6.09-23.65-1.02-36.9-12.07-37.75-22.47-.35-4.26 1.12-8.29 4.26-11.64 6.44-6.88 20.09-10.85 36.6-10.57 27.71.44 43.84 6.01 49.29 17.05 3.29 6.66 1.63 13.57-.64 18.1 2.59 8.3 8.25 30.77-1.31 44.06-.45 1.19.25 5.34.68 7.83 1.15 6.77 2.57 15.2-2.34 22.1-7.19 10.1-37.17 17.75-60.65 21.23-10.43 1.53-25.84 3.22-43.37 3.22Z" style="fill:#4682b4;fill-rule:nonzero"/><path d="M477.7 1298.88c-.47 0-.94-.05-1.41-.16-11.34-2.57-21.79-6.27-31.08-11a6.366 6.366 0 0 1-2.78-8.57 6.366 6.366 0 0 1 8.57-2.78c8.34 4.25 17.8 7.59 28.11 9.93 3.43.78 5.58 4.19 4.81 7.62a6.4 6.4 0 0 1-6.22 4.96ZM520.54 1303.28c-5.57 0-11.17-.18-16.78-.59a6.371 6.371 0 0 1-5.9-6.81c.25-3.51 3.32-6.14 6.81-5.9 56.82 4.08 115.67-16.13 116.26-16.33 3.33-1.16 6.96.6 8.11 3.92 1.16 3.32-.6 6.96-3.92 8.11-2.27.79-51.24 17.6-104.58 17.6ZM591.55 1214.73c-1.3 0-2.62-.1-3.94-.31-13.91-2.16-23.44-15.19-21.28-29.1l18.33-118.08c2.16-13.91 15.18-23.43 29.1-21.28 13.91 2.16 23.44 15.19 21.28 29.1l-18.33 118.08c-1.95 12.59-12.8 21.59-25.16 21.59Z" style="fill:#4682b4;fill-rule:nonzero"/><ellipse cx="587.39" cy="1140.23" rx="15" ry="8.62" style="fill:#f8f8f8" transform="rotate(-81.077 587.364 1140.221)"/><path d="M754.86 1210.43c.83-10.03-16.2-15.61-34.4-15.32-61.8.97-41.79 28.03-41.79 28.03s-10.09 27.85-.44 41.13c4.47 6.15-4.59 21.15 1.65 29.91 9 12.63 90.68 31.89 152.13 15.4 26.57-7.13 30.52-31.73 27.18-54.43-4.89-33.23-51.82-50.56-91.11-18.69 0 0-1.61-11.79-8.03-18.28-6.42-6.49-5.19-7.75-5.19-7.75Z" style="fill:#fff;fill-rule:nonzero"/><path d="M768.83 1246.01c-3.14 0-5.88-2.32-6.31-5.52-1.9-14.13-10.59-16.89-10.96-17l.12.03 3.16-12.35c.7.18 17.22 4.66 20.32 27.62.47 3.49-1.98 6.7-5.46 7.17-.29.03-.58.05-.87.05Z" style="fill:#4682b4;fill-rule:nonzero"/><path d="M778.7 1322.34c-17.53 0-32.94-1.69-43.36-3.23-23.48-3.48-53.46-11.13-60.65-21.23-4.92-6.9-3.49-15.33-2.34-22.1.42-2.49 1.12-6.64.68-7.83-9.56-13.29-3.9-35.75-1.31-44.06-2.26-4.53-3.93-11.45-.64-18.1 5.46-11.04 21.58-16.61 49.29-17.05 16.5-.27 30.16 3.69 36.6 10.57 3.14 3.35 4.61 7.38 4.26 11.64-.86 10.39-14.1 21.45-37.75 22.47-3.47.15-6.49-2.58-6.64-6.09a6.372 6.372 0 0 1 6.09-6.64c18.86-.81 25.42-8.64 25.6-10.78.02-.29.07-.89-.86-1.89-3.09-3.31-12.92-6.75-27.09-6.54-7.81.12-33.63 1.2-38.04 9.9-1.8 3.55 1.28 7.98 1.31 8.02l2.03 2.75-1.2 3.16c-2.31 6.41-7.5 26.65-1.28 35.22 3.62 4.98 2.55 11.28 1.52 17.37-.79 4.68-1.69 9.98.16 12.58 2.3 3.23 19.96 11.24 52.14 16.01 19.66 2.91 57.9 6.39 93.15-3.07 18.83-5.05 26.41-20.98 22.53-47.35-2.01-13.66-15.92-26.34-32.36-29.48-22.57-4.31-44.67 9.03-60.59 36.62a6.375 6.375 0 0 1-8.71 2.33 6.375 6.375 0 0 1-2.33-8.71c26.71-46.25 60.67-45.31 74.02-42.76 21.86 4.18 39.77 21.06 42.58 40.14 4.83 32.86-6.47 54.71-31.84 61.51-18.56 5-37.79 6.62-54.97 6.62Z" style="fill:#4682b4;fill-rule:nonzero"/><path d="M825.72 1298.88c-2.91 0-5.54-2.01-6.21-4.97a6.361 6.361 0 0 1 4.81-7.62c10.31-2.34 19.76-5.68 28.11-9.93 3.14-1.6 6.97-.35 8.57 2.78 1.6 3.14.35 6.97-2.78 8.57-9.28 4.73-19.74 8.43-31.08 11a5.8 5.8 0 0 1-1.42.17ZM782.88 1303.28c-53.35 0-102.31-16.8-104.58-17.59-3.32-1.16-5.08-4.79-3.92-8.11 1.16-3.32 4.79-5.08 8.11-3.93.59.2 59.53 20.41 116.26 16.33 3.51-.24 6.56 2.39 6.81 5.9a6.371 6.371 0 0 1-5.9 6.81c-5.6.4-11.21.59-16.78.59ZM711.87 1214.73c-12.35 0-23.2-9-25.16-21.58l-18.32-118.08c-2.16-13.91 7.37-26.94 21.28-29.1 13.92-2.16 26.94 7.37 29.1 21.28l18.32 118.08c2.16 13.91-7.37 26.94-21.28 29.1-1.32.2-2.64.3-3.94.3Z" style="fill:#4682b4;fill-rule:nonzero"/><ellipse cx="716.04" cy="1140.23" rx="8.62" ry="15" style="fill:#f8f8f8" transform="rotate(-8.922 716.166 1140.39)"/><path d="M862.93 622.78c-9.54-38.17-23.8-132.09-85.87-174.52-31.45-21.49-72.69-17.63-107.49-11.74-23.34.59-43.16 4.09-60.08 9.78 12.42-3.21 26.39-5.01 42.21-5.01 129.55 0 137.26 118.92 151.14 174.45 16.74 66.96 89.64 161.45 86.4 295.37-2.34 96.77-87.87 191.16-237.32 191.15 162.82 15.04 287.43-93.59 289.77-190.37 3.25-133.91-62.02-222.15-78.76-289.11Z" style="fill:#6ce385;fill-rule:nonzero"/><path d="M687.23 1109.82c-9.08 0-18.13-.4-27.11-1.22l1.15-12.69c38.71 3.51 78.91-.93 116.29-12.84 37.45-11.94 71.2-31.11 97.6-55.45 41.69-38.43 63.46-87.4 62.95-141.61-.81-87.6-31.86-152.33-56.81-204.34-12.99-27.08-24.2-50.46-29.91-73.27-1.65-6.61-3.22-14.1-4.88-22.02-6.23-29.81-13.99-66.9-34-96.54-23.2-34.35-57.9-51.06-106.08-51.06-21.18 0-73.85 6.69-88.17 11.97l-4.41-11.96c15.69-5.79 70.2-12.76 92.58-12.76 27.84 0 52.19 5.44 72.36 16.17 17.55 9.34 32.45 22.96 44.29 40.49 21.42 31.71 29.46 70.17 35.92 101.07 1.63 7.8 3.17 15.17 4.76 21.54 5.39 21.56 16.35 44.4 29.03 70.85 25.5 53.15 57.23 119.3 58.07 209.74.54 57.91-22.65 110.15-67.06 151.1-27.76 25.59-63.16 45.73-102.37 58.23-30.32 9.65-62.43 14.6-94.2 14.6Z" style="fill:#4682b4;fill-rule:nonzero"/><path d="M889.27 911.15c-1.91 81.06-62.32 160.33-169.64 184.04-20.77 4.46-43.33 7.01-67.68 7.01h-.51c-5.99 0-11.85-.13-17.59-.51-138.54-7.01-217.43-97.63-219.73-190.54-3.19-133.95 69.72-228.52 86.41-295.43 13.25-52.89 20.9-163.14 133.31-173.59 5.73-.64 11.6-.89 17.84-.89 129.62 0 137.26 118.91 151.16 174.48 16.71 66.91 89.61 161.48 86.43 295.43Z" style="fill:#6ce385;fill-rule:nonzero"/><path d="M690.9 445.91c-3.96-32.86 6.41-98.16 67.55-95.31 9.97-1.89 12.3-16.49 8.98-34.01-3.32-17.51-15.93-30.87-25.91-28.98-69.47 11.72-93.14 76.51-80.75 149.09l30.13 9.21Z" style="fill:#fff;fill-rule:nonzero"/><path d="M754.58 347.12s-27.94-27.39-13.33-59.91c0 0 22.6 2.15 26.28 26.57 3.69 24.41-12.95 33.34-12.95 33.34Z" style="fill:#4682b4;fill-rule:nonzero"/><path d="M690.9 448.89c-3.18 0-5.93-2.38-6.32-5.61-2.33-19.36-.28-58.58 22.21-82.79 12.85-13.83 30.03-20.45 51-19.69 4.51-1.63 5.97-12.73 3.38-26.42-2.86-15.09-13.18-24.9-18.46-23.9l-.13.02c-24.31 4.1-43.45 15.78-56.89 34.72-18.92 26.66-25.44 67.4-17.86 111.77a6.369 6.369 0 0 1-5.21 7.35 6.374 6.374 0 0 1-7.35-5.21c-8.26-48.38-1.14-91.46 20.03-121.29 15.46-21.79 37.37-35.21 65.11-39.9 13.81-2.56 29.35 13.34 33.29 34.06 4.45 23.45-.81 38.95-14.05 41.46l-.74.14-.75-.03c-17.52-.82-31.66 4.43-42.03 15.6-8 8.61-13.9 20.97-17.04 35.74-2.56 11.99-3.23 25.42-1.85 36.85.42 3.49-2.07 6.67-5.56 7.09-.27.02-.53.04-.78.04Z" style="fill:#4682b4;fill-rule:nonzero"/><path d="M750.12 351.67c-1.27-1.25-30.93-30.92-14.68-67.07l11.62 5.23c-12.57 27.97 10.98 51.76 11.99 52.76l-8.93 9.08ZM696.02 432.12s-3.47 8.92-16.22 13.55c0 0 35.1.7 44.59-8.22l-28.37-5.33Z" style="fill:#4682b4;fill-rule:nonzero"/><path d="M651.95 1108.63h-.45c-71.44 0-133.01-21.05-178.05-60.88-20.51-18.14-36.65-39.41-47.97-63.21-11.11-23.36-17.06-48.02-17.67-73.28-2.25-92.99 31.37-166.69 58.38-225.92 12.36-27.11 23.04-50.52 28.2-71.15 1.59-6.37 3.13-13.74 4.77-21.54 6.46-30.9 14.5-69.35 35.92-101.07 11.84-17.53 26.74-31.16 44.29-40.49 20.17-10.73 44.52-16.17 72.36-16.17 27.84 0 52.19 5.44 72.36 16.17 17.55 9.34 32.45 22.96 44.29 40.49 21.42 31.71 29.46 70.17 35.92 101.07 1.63 7.8 3.17 15.17 4.77 21.54 5.16 20.63 15.84 44.04 28.2 71.15 1.44 3.15 2.89 6.35 4.37 9.59 1.46 3.2.04 6.98-3.17 8.44a6.376 6.376 0 0 1-8.44-3.17c-1.47-3.23-2.92-6.42-4.36-9.56-12.63-27.68-23.53-51.59-28.97-73.35-1.65-6.61-3.22-14.1-4.88-22.02-6.23-29.81-13.99-66.9-34-96.54-23.2-34.35-57.9-51.05-106.08-51.05s-82.88 16.7-106.08 51.05c-20.01 29.64-27.77 66.73-34 96.54-1.66 7.93-3.22 15.41-4.88 22.02-5.44 21.76-16.34 45.67-28.97 73.35-26.47 58.04-59.42 130.27-57.24 220.32.57 23.46 6.1 46.38 16.44 68.11 10.58 22.24 25.69 42.14 44.91 59.14 42.67 37.74 101.32 57.69 169.61 57.69h.45c56.21 0 106.98-13.92 146.83-40.26 36.21-23.94 62.24-56.88 75.27-95.27a6.376 6.376 0 0 1 8.08-3.99 6.376 6.376 0 0 1 3.99 8.08c-13.95 41.09-41.72 76.3-80.31 101.8-41.97 27.72-95.18 42.37-153.89 42.37Z" style="fill:#4682b4;fill-rule:nonzero"/><path d="M605.52 604.56c10.36-7.95 18.46-25.3 20.18-45.96 2.44-29.28-8.84-54.13-25.2-55.49-16.36-1.36-31.6 21.27-34.04 50.55-1.37 16.47 1.59 31.54 7.37 41.81l31.69 9.09ZM689.24 613.89c-9.02-9.44-14.36-27.83-12.9-48.51 2.07-29.31 17.03-52.13 33.4-50.98 16.37 1.16 27.97 25.86 25.89 55.17-1.17 16.49-6.41 30.92-13.69 40.19l-32.7 4.13Z" style="fill:#fff;fill-rule:nonzero" transform="translate(0 60)"/><path d="M684.63 618.3c-10.58-11.07-16.2-31.52-14.65-53.36 2.36-33.32 20.01-58.32 40.21-56.88 10.33.73 19.27 8.07 25.18 20.68 5.35 11.39 7.7 26.06 6.62 41.3-1.21 17.14-6.69 33.06-15.03 43.68l-10.02-7.87c6.81-8.67 11.3-22.05 12.34-36.7.93-13.11-1-25.53-5.44-34.99-3.81-8.12-9.11-12.99-14.55-13.38-13.72-.97-25.03 22.97-26.6 45.07-1.28 18.09 3.1 35.23 11.15 43.66l-9.21 8.79Z" style="fill:#4682b4;fill-rule:nonzero" transform="translate(0 60)"/><path d="M719.45 536.78c-13.09-2.05-26.16 11.92-29.2 31.21 4.43 2.59 11.33 4.95 21.19 3.62 0 0-10.02 10.22-21.56 8.59 1.21 13.94 8.35 24.92 18.6 26.53 13.1 2.06 26.18-11.94 29.21-31.25 3.03-19.31-5.14-36.65-18.24-38.7Z" style="fill:#4682b4;fill-rule:nonzero" transform="translate(0 60)"/><path d="M734.34 625.85a6.35 6.35 0 0 1-5.1-2.55c-9.92-13.21-29.24-6.58-39.87-1.46a6.373 6.373 0 0 1-5.54-11.48c24.09-11.62 44.36-9.69 55.6 5.29a6.377 6.377 0 0 1-5.09 10.2ZM571.63 654.72c14.32 26.45 41.48 78.76 70.58 80.31 41.83 2.23 69.14-72.5 80.83-78.94l-8.06-5.14s-9.92.96-31.29 13c-14.81 8.34-67.74 28.43-105.6-11.13-4.62-4.81-8.59-2.04-6.46 1.9ZM609.39 609.62l-7.75-10.11c9.25-7.09 16.2-23.35 17.71-41.43 1.84-22.07-5.66-47.47-19.38-48.61-5.41-.46-11.41 3.55-16.42 10.99-5.83 8.66-9.65 20.64-10.74 33.74-1.22 14.65 1.17 28.55 6.57 38.16l-11.11 6.24c-6.61-11.77-9.59-28.34-8.16-45.46 1.27-15.23 5.84-29.36 12.87-39.8 7.78-11.55 17.73-17.44 28.06-16.57 20.17 1.68 33.79 29.08 31.02 62.37-1.83 21.82-10.51 41.16-22.67 50.48Z" style="fill:#4682b4;fill-rule:nonzero" transform="translate(0 60)"/><path d="M607.52 529.71c-13.08-1.89-25.94 12.21-28.74 31.49 4.45 2.53 11.37 4.79 21.18 3.35 0 0-9.87 10.32-21.4 8.84 1.38 13.88 8.64 24.76 18.88 26.23 13.09 1.89 25.96-12.23 28.75-31.54 2.78-19.31-5.58-36.49-18.67-38.37Z" style="fill:#4682b4;fill-rule:nonzero" transform="translate(0 60)"/><path d="M563.95 616.42c-3.41 0-6.24-2.7-6.36-6.14-.27-7.17 4-14.16 10.88-17.81 6.5-3.45 20.75-6.81 43.08 9.53a6.375 6.375 0 0 1 1.38 8.91 6.368 6.368 0 0 1-8.91 1.38c-12.04-8.81-23.09-12-29.58-8.56-2.94 1.56-4.19 4.18-4.12 6.08a6.37 6.37 0 0 1-6.13 6.6c-.08.01-.16.01-.24.01ZM727.36 668.2c-2.59 0-5.03-1.59-5.98-4.16-4.47-12.09-15.35-11.34-16.57-11.21-3.5.43-6.64-2.06-7.07-5.55-.43-3.49 2.08-6.68 5.58-7.11 7.55-.93 23.54 1.94 30.02 19.44 1.22 3.3-.46 6.97-3.76 8.19-.74.28-1.48.4-2.22.4ZM739.45 511.75c-2.16 0-4.26-1.1-5.46-3.08-5.66-9.38-12.25-14.64-19.6-15.64-12.41-1.69-24.11 8.97-24.22 9.08a6.38 6.38 0 0 1-9.01-.26 6.37 6.37 0 0 1 .26-9.01c.65-.61 16.1-14.98 34.69-12.44 11.35 1.55 21.03 8.84 28.79 21.69 1.82 3.01.85 6.93-2.16 8.75a6.46 6.46 0 0 1-3.29.91ZM629.43 498.93c-2.4 0-4.7-1.36-5.78-3.68-.13-.27-6.16-12.66-17.13-15.24-7.01-1.65-15 1.03-23.78 7.95a6.367 6.367 0 0 1-8.95-1.06 6.367 6.367 0 0 1 1.06-8.95c12.02-9.48 23.69-12.96 34.7-10.33 17.06 4.07 25.31 21.5 25.65 22.24 1.48 3.19.09 6.98-3.1 8.46-.86.42-1.77.61-2.67.61Z" style="fill:#4682b4;fill-rule:nonzero" transform="translate(0 60)"/><path d="M642.874 687.584c-4.89-3.126-9.6-3.741-13.264-1.744-3.08 1.68-5.15 5.14-5.15 8.6 0 3.41 1.92 6.27 5.55 8.27 2.14 1.18 6.41.85 8.91-1.36a6.377 6.377 0 0 1 9 .56c2.33 2.64 2.08 6.67-.56 8.99-3.89 3.43-9.16 5.23-14.28 5.23-3.26 0-6.47-.73-9.21-2.24-7.73-4.25-12.17-11.34-12.16-19.45.01-8.1 4.64-15.86 11.79-19.77 6.702-3.663 14.679-3.598 22.4.053l4.38-.833 6.24-1.28c.8 3.92.45 11.63-5.97 15.66-1.05.66-2.22.97-3.38.97a6.404 6.404 0 0 1-4.296-1.656Z" style="fill:#4682b4"/><path d="M614.58 686.5s2.63 7.27 9.43 9.64c9.56 3.34 51.5 1.89 67.02-19.47l3.55-8.52s-12.74 10.94-34.05 16.93c-19.64 5.52-45.95 1.42-45.95 1.42ZM651.47 706.2c-3.87 3.79-2.96 4.98-4.19 5.25-2.05.45-1.99-3.79-.79-5.67-1.72-.55-4.34-.91-8.21-.21-7.24 1.32-9.52 13.05 4.68 15.43 13.96 2.35 21.79-8.58 19.76-13.94-1.47-3.83-7.76-2.14-11.25-.86Z" style="fill:#fff;fill-rule:nonzero" transform="translate(0 60)"/><path d="m1132.39 719.45-84.32 211.36-162.66-64.89 105.13-263.51 141.85 117.04Z" style="fill:#4682b4;fill-rule:nonzero"/><path d="m1051.63 939.09-174.5-69.61 110.72-277.55 152.18 125.56-88.4 221.6Zm-157.94-76.72 150.82 60.17 80.23-201.13-131.52-108.52-99.53 249.48Z" style="fill:#4682b4;fill-rule:nonzero"/><path style="fill:#fff" d="M814.44 656.76h265.16V848.7H814.44z" transform="rotate(-66.165 947.082 752.75)"/><path d="m984.49 921.18-187.23-82.7 112.29-254.21 187.23 82.71-112.29 254.2Zm-170.42-89.21 163.92 72.41 101.99-230.89-163.92-72.41-101.99 230.89Z" style="fill:#4682b4;fill-rule:nonzero"/><path style="fill:#fff" d="M839.46 728.45h265.16v191.94H839.46z" transform="rotate(-66.165 972.095 824.441)"/><path d="m1009.51 992.88-187.23-82.71 112.29-254.21 187.23 82.7-112.29 254.22Zm-170.43-89.22L1003 976.07l101.99-230.89-163.92-72.4-101.99 230.88Z" style="fill:#4682b4;fill-rule:nonzero"/><path style="fill:#fff" d="M805.04 675.34h265.16v191.94H805.04z" transform="rotate(-74.758 937.596 771.33)"/><path d="m999.82 932.28-197.49-53.82 73.07-268.12 197.49 53.82-73.07 268.12Zm-181.83-62.76 172.89 47.11 66.36-243.53-172.89-47.11-66.36 243.53Z" style="fill:#4682b4;fill-rule:nonzero"/><path style="fill:#fff" d="M833.04 675.72h265.16v191.94H833.04z" transform="rotate(-68.253 965.622 771.713)"/><path d="m1009.19 938.67-190.12-75.84 38.57-96.67c1.3-3.27 5.02-4.86 8.28-3.56 3.27 1.3 4.86 5.01 3.56 8.28l-33.84 84.83 166.44 66.4 93.53-234.44-166.44-66.4-35.13 88.05c-1.3 3.27-5.01 4.86-8.28 3.56-3.27-1.3-4.86-5.01-3.56-8.28l39.85-99.89 190.12 75.84-102.98 258.12Z" style="fill:#4682b4;fill-rule:nonzero"/><path style="fill:#4682b4" d="M860.06 714.79h265.16v191.94H860.06z" transform="rotate(-68.253 992.646 810.779)"/><path style="fill:#fff" d="M987.68 691.46h64.45v101.91h-64.45z" transform="rotate(-68.253 1019.907 742.435)"/><path style="fill:#fff" d="M966.02 821.09h9.93v87.92h-9.93z" transform="rotate(-68.253 970.99 865.07)"/><path style="fill:#fff" d="M959.05 838.55h9.93v87.92h-9.93z" transform="rotate(-68.253 964.023 882.53)"/><path d="M1036.21 977.74 846.09 901.9l102.97-258.12 190.12 75.84-102.97 258.12Zm-173.55-82.96 166.44 66.4 93.53-234.44-166.44-66.4-93.53 234.44Z" style="fill:#4682b4;fill-rule:nonzero"/><path d="M1052.83 861.05c-11.53-2.22-35.66-12.53-40.07.35-4.07 11.89 3.49 24.06 33.4 29.71 29.54 5.58 45.02-7.33 38.41-20.79-5.81-11.85-17.35-6.5-31.74-9.27Z" style="fill:#f8f8f8;fill-rule:nonzero"/><path d="M1057 898.94c-4.04 0-8.22-.55-12.45-1.67-19.95-5.24-32.14-12.73-36.23-22.27-2.36-5.49-1.96-11.39 1.14-17.04 8.59-15.63 28.31-8.8 40.09-4.73 1.86.65 3.62 1.25 5.15 1.72 3.05.93 5.38.25 8.6-.69 4.89-1.42 12.29-3.58 20.39 3.79 6.96 6.33 8.39 16.05 3.66 24.77-3.29 6.07-9.1 10.91-16.36 13.65-4.35 1.65-9.07 2.47-13.99 2.47Zm-29.58-38.06c-3.15 0-5.52.91-6.79 3.23-1.55 2.83-1.14 4.62-.6 5.87 1.12 2.6 6.06 9.27 27.76 14.97 14.38 3.78 24.78-1.6 28.36-8.2 1.13-2.08 2.5-6.05-1.03-9.26-2.82-2.56-3.97-2.23-8.25-.98-3.89 1.13-9.21 2.68-15.9.63-1.74-.53-3.61-1.18-5.58-1.86-6.97-2.4-13.32-4.4-17.97-4.4Z" style="fill:#4682b4;fill-rule:nonzero"/><path d="M1070.9 832.43c-15.06-3.28-46.42-17.6-52.63-.83-5.73 15.48 3.81 31.7 42.9 40.08 38.6 8.27 59.35-8.18 51.1-26.06-7.25-15.73-22.56-9.09-41.37-13.19Z" style="fill:#f8f8f8;fill-rule:nonzero"/><path d="M1076.56 880.34c-5.56 0-11.33-.84-17.16-2.53-25.4-7.35-40.73-17.18-45.56-29.23-2.68-6.7-2.02-13.82 1.92-20.59 10.93-18.78 34.67-9.92 50.37-4.05 2.44.91 4.75 1.78 6.78 2.45 4.53 1.51 8.21.54 12.46-.58 6.4-1.7 15.17-4.02 24.76 5.15 8.24 7.87 9.68 19.73 3.65 30.2-4.28 7.44-11.69 13.3-20.85 16.5-5.12 1.78-10.64 2.68-16.37 2.68Zm-39.6-50.94c-4.55 0-8.08 1.41-10.17 5-1.98 3.4-2.33 6.39-1.11 9.44 1.85 4.63 9.16 13.6 37.27 21.73 19.79 5.72 34.5-1.57 39.79-10.77 1.48-2.58 4.31-9.16-1.41-14.63-4.43-4.23-6.85-3.59-12.69-2.04-5.17 1.37-11.6 3.07-19.75.36-2.24-.75-4.65-1.65-7.2-2.6-9.5-3.56-18.17-6.49-24.73-6.49Z" style="fill:#4682b4;fill-rule:nonzero"/><path d="M1085.82 795.3c-15.06-3.28-46.42-17.6-52.62-.83-5.73 15.48 3.81 31.7 42.9 40.08 38.6 8.27 59.35-8.18 51.1-26.06-7.26-15.74-22.57-9.1-41.38-13.19Z" style="fill:#f8f8f8;fill-rule:nonzero"/><path d="M1091.48 843.2c-5.56 0-11.33-.84-17.16-2.53-25.4-7.35-40.73-17.18-45.56-29.23-2.68-6.7-2.02-13.82 1.92-20.59 10.93-18.78 34.67-9.92 50.37-4.05 2.44.91 4.75 1.78 6.78 2.45 4.54 1.51 8.21.54 12.46-.59 6.4-1.7 15.17-4.02 24.76 5.15 8.24 7.87 9.68 19.73 3.65 30.2-4.28 7.44-11.68 13.3-20.85 16.5-5.12 1.79-10.64 2.69-16.37 2.69Zm-39.6-50.94c-4.55 0-8.08 1.41-10.17 5-1.98 3.4-2.33 6.39-1.11 9.44 1.85 4.62 9.16 13.6 37.27 21.73 19.79 5.72 34.5-1.57 39.79-10.77 1.48-2.58 4.31-9.16-1.41-14.63-4.43-4.23-6.85-3.59-12.69-2.04-5.17 1.37-11.61 3.07-19.75.35-2.24-.75-4.65-1.65-7.2-2.6-9.5-3.54-18.17-6.48-24.73-6.48Z" style="fill:#4682b4;fill-rule:nonzero"/></svg>