<?xml version="1.0" encoding="UTF-8" standalone="no"?>
<!DOCTYPE svg PUBLIC "-//W3C//DTD SVG 1.1//EN" "http://www.w3.org/Graphics/SVG/1.1/DTD/svg11.dtd">
<svg width="100%" height="100%" viewBox="0 0 1100 1100" version="1.1" xmlns="http://www.w3.org/2000/svg" xmlns:xlink="http://www.w3.org/1999/xlink" xml:space="preserve" xmlns:serif="http://www.serif.com/" style="fill-rule:evenodd;clip-rule:evenodd;stroke-linejoin:round;stroke-miterlimit:2;">
    <g transform="matrix(1,0,0,1,-50,-250)">
        <path d="M365.79,797.68L362.85,746.78L362.72,746.79C362.89,746.78 379.94,745.53 401.78,736.79C430.11,725.46 453.05,707.37 469.95,683.02C477.98,671.46 493.86,668.59 505.43,676.62C516.99,684.65 519.86,700.53 511.83,712.1C456.67,791.56 369.48,797.47 365.79,797.68Z" style="fill:rgb(70,130,180);fill-rule:nonzero;"/>
    </g>
    <g transform="matrix(1,0,0,1,-50,-250)">
        <path d="M360.28,761.8C372.78,791.25 358.54,799.48 352.29,800.69C346.04,801.9 333.75,803.77 333.75,803.77C333.75,803.77 336.01,824.53 306.26,829.63C276.51,834.73 217.37,836.12 211.26,841.04C205.15,845.96 184.46,787.86 184.46,787.86C184.46,787.86 277.76,763.34 281.32,752.05C284.88,740.76 246.26,740.18 243.07,732.82C239.88,725.46 229.57,708.64 253.33,709.9C276.33,711.12 342.93,753.84 342.93,753.84C342.93,753.84 353.49,745.79 360.28,761.8Z" style="fill:white;fill-rule:nonzero;"/>
    </g>
    <g transform="matrix(1,0,0,1,-50,-250)">
        <path d="M207.26,847.77C205.93,847.77 204.62,847.66 203.36,847.42C201.36,847.03 195.27,845.85 192.09,840.26C189.5,835.71 189.62,829.64 192.47,821.71C197.69,807.13 216.51,805.74 217.3,805.69C220.82,805.46 223.84,808.13 224.07,811.64C224.079,811.777 224.083,811.915 224.083,812.053C224.083,815.394 221.454,818.197 218.12,818.41C218.03,818.42 206.82,819.42 204.46,826.01C202.24,832.22 203.15,833.94 203.16,833.96C203.16,833.96 203.54,834.48 205.78,834.91C208.34,835.41 213.45,834.3 217.42,832.39C222.52,829.94 237.24,824.64 247.76,824.85C251.28,824.92 254.07,827.83 254,831.35C253.93,834.87 250.99,837.67 247.5,837.59C240.11,837.45 227.8,841.54 222.95,843.87C218.72,845.91 212.77,847.77 207.26,847.77Z" style="fill:rgb(70,130,180);fill-rule:nonzero;"/>
    </g>
    <g transform="matrix(1,0,0,1,-50,-250)">
        <path d="M201.7,825.11C199.79,825.11 197.9,824.25 196.65,822.63C194.15,819.48 186.5,808.45 190.69,795.84C194.65,783.92 207.78,774.95 229.7,769.18C262.05,760.66 272.28,751.72 274.09,748.72C272.92,748.01 269.55,746.56 261.38,746.31C245.92,745.83 231.43,735.92 229.76,724.68C229.15,720.58 229.48,710.45 245.74,704.93C264.34,698.62 274.99,705.76 286.27,713.32C292.27,717.34 299.06,721.89 308.18,725.22C320.54,729.73 343.58,746.45 343.51,766.48C343.499,769.967 340.627,772.83 337.14,772.83L337.11,772.83C333.59,772.82 330.75,769.95 330.76,766.43C330.81,753.89 312.98,740.54 303.81,737.2C293.24,733.35 285.76,728.33 279.17,723.91C268.75,716.93 262.46,712.71 249.83,717C245.99,718.3 242.02,720.51 242.36,722.8C242.58,724.26 244.19,726.85 247.99,729.31C251.95,731.87 256.97,733.42 261.77,733.57C272.64,733.91 285.85,736.51 287.04,746.98C287.8,753.64 282.86,760.18 272.36,766.41C263.02,771.96 249.39,777.18 232.95,781.5C211.16,787.24 204.52,794.65 202.79,799.86C200.61,806.4 205.16,812.84 206.6,814.66L206.78,814.9C208.9,817.71 208.34,821.71 205.53,823.82C204.38,824.7 203.03,825.11 201.7,825.11Z" style="fill:rgb(70,130,180);fill-rule:nonzero;"/>
    </g>
    <g transform="matrix(1,0,0,1,-50,-250)">
        <path d="M345.28,808.51C341.65,808.51 339.07,807.97 338.82,807.92L341.53,795.47C343.94,795.96 351.14,796.43 355.08,792.63C359.48,788.39 359.12,779.77 358.04,773.29C357.15,767.96 355.12,761.13 350.53,758.9C345.65,756.53 339.22,759.82 339.16,759.86L333.04,748.68C334.27,748 345.39,742.23 356.1,747.43C363.72,751.13 368.6,759.12 370.62,771.19C372.94,785.08 370.66,795.41 363.85,801.89C358.08,807.37 350.57,808.51 345.28,808.51ZM273.1,795.25C272.02,795.25 270.92,794.97 269.92,794.39C267.953,793.256 266.738,791.151 266.738,788.881C266.738,787.764 267.032,786.667 267.59,785.7C268.02,784.96 278.26,767.45 295.49,763.11C304.44,760.86 313.45,762.49 322.28,767.97C324.15,769.129 325.291,771.178 325.291,773.378C325.291,774.566 324.958,775.731 324.33,776.74C322.483,779.709 318.524,780.637 315.55,778.8C309.71,775.18 304.18,774.08 298.65,775.46C286.69,778.44 278.7,791.94 278.63,792.07C277.486,794.037 275.375,795.251 273.1,795.25Z" style="fill:rgb(70,130,180);fill-rule:nonzero;"/>
    </g>
    <g transform="matrix(1,0,0,1,-50,-250)">
        <path d="M120.24,777.67L122.22,795.8L191.4,826.87L359.16,774.77C359.03,773.54 356.57,756.71 356.57,756.71L120.24,777.67Z" style="fill:white;fill-rule:nonzero;"/>
    </g>
    <g transform="matrix(1,0,0,1,-50,-250)">
        <path d="M188.81,808.8L356.56,756.7L272.59,730.23L119.63,777.73L188.81,808.8Z" style="fill:white;fill-rule:nonzero;"/>
    </g>
    <g transform="matrix(1,0,0,1,-50,-250)">
        <path d="M188.81,815.17C187.92,815.17 187.03,814.98 186.2,814.61L117.02,783.54C114.607,782.457 113.109,779.98 113.27,777.34C113.429,774.701 115.215,772.424 117.74,771.64L270.71,724.14C271.95,723.76 273.28,723.76 274.52,724.15L358.49,750.63C361.15,751.47 362.95,753.94 362.95,756.72C362.946,759.498 361.123,761.967 358.47,762.79L190.71,814.89C190.08,815.08 189.44,815.17 188.81,815.17ZM137.61,778.82L189.22,802L335.23,756.66L272.58,736.91L137.61,778.82Z" style="fill:rgb(70,130,180);fill-rule:nonzero;"/>
    </g>
    <g transform="matrix(1,0,0,1,-50,-250)">
        <path d="M119.63,777.73L188.81,808.8L130.89,620.31L67.61,602.97L119.63,777.73Z" style="fill:white;fill-rule:nonzero;"/>
    </g>
    <g transform="matrix(1,0,0,1,-50,-250)">
        <path d="M188.81,815.17C187.93,815.17 187.04,814.99 186.2,814.61L117.02,783.54C115.328,782.779 114.05,781.318 113.52,779.54L61.5,604.79C60.838,602.577 61.433,600.17 63.05,598.52C64.668,596.871 67.06,596.223 69.29,596.83L132.57,614.17C134.67,614.75 136.34,616.36 136.98,618.44L194.9,806.93C195.63,809.32 194.9,811.92 193.03,813.58C191.864,814.606 190.363,815.172 188.81,815.17ZM124.9,773.12L178.58,797.23L125.82,625.54L76.99,612.16L124.9,773.12ZM262.63,745.75L272.18,742.79L278.33,744.63L268.79,747.59L262.63,745.75ZM238.11,753.37L247.65,750.4L253.81,752.24L244.26,755.21L238.11,753.37ZM248.9,757.87L258.44,754.9L264.6,756.74L255.05,759.71L248.9,757.87ZM259.69,762.37L269.23,759.4L275.39,761.25L265.84,764.21L259.69,762.37ZM270.47,766.87L280.02,763.91L286.18,765.75L276.63,768.71L270.47,766.87ZM212.41,761.35L221.96,758.38L228.11,760.22L218.56,763.19L212.41,761.35ZM223.2,765.85L232.75,762.88L238.9,764.72L229.35,767.69L223.2,765.85ZM233.99,770.35L243.54,767.39L249.69,769.23L240.14,772.19L233.99,770.35ZM244.78,774.85L254.33,771.89L260.48,773.73L250.93,776.69L244.78,774.85ZM186.71,769.33L196.26,766.36L202.41,768.2L192.86,771.17L186.71,769.33ZM197.5,773.83L207.05,770.86L213.2,772.7L203.65,775.67L197.5,773.83ZM208.29,778.33L217.84,775.37L223.99,777.21L214.44,780.17L208.29,778.33ZM219.08,782.83L228.63,779.87L234.78,781.71L225.23,784.67L219.08,782.83ZM271.81,749.47L281.36,746.5L310.9,756.41L301.35,759.38L271.81,749.47Z" style="fill:rgb(70,130,180);fill-rule:nonzero;"/>
    </g>
    <g transform="matrix(1,0,0,1,-50,-250)">
        <path d="M191.4,833.24C190.51,833.24 189.62,833.05 188.79,832.68L119.61,801.61C117.553,800.684 116.135,798.733 115.89,796.49L113.91,778.36C113.536,774.886 116.078,771.718 119.55,771.33C123.05,770.95 126.19,773.48 126.58,776.97L128.16,791.47L191.81,820.06L352.09,770.28C351.54,766.47 350.8,761.34 350.26,757.62C350.215,757.315 350.193,757.007 350.193,756.699C350.193,753.546 352.531,750.844 355.65,750.39C355.957,750.345 356.266,750.322 356.576,750.322C359.727,750.322 362.429,752.661 362.88,755.78C363.29,758.61 365.36,772.79 365.5,774.07C365.828,777.092 363.953,779.949 361.05,780.85L193.29,832.95C192.67,833.14 192.03,833.24 191.4,833.24Z" style="fill:rgb(70,130,180);fill-rule:nonzero;"/>
    </g>
    <g transform="matrix(1,0,0,1,-50,-250)">
        <path d="M191.39,833.24C188.158,833.234 185.415,830.773 185.06,827.56L183.08,809.43C182.706,805.956 185.248,802.788 188.72,802.4C192.21,802.02 195.36,804.55 195.75,808.04L197.73,826.17C198.11,829.67 195.58,832.81 192.09,833.2C191.85,833.22 191.62,833.24 191.39,833.24Z" style="fill:rgb(70,130,180);fill-rule:nonzero;"/>
    </g>
    <g transform="matrix(1,0,0,1,-50,-250)">
        <path d="M279.48,811.37C258.85,810.73 234.94,794.03 222.79,801.91C210.64,809.79 234.69,835.09 253.66,834.18C272.63,833.27 304.01,827.13 304.01,827.13L300.79,812.68L279.48,811.37Z" style="fill:white;fill-rule:nonzero;"/>
    </g>
    <g transform="matrix(1,0,0,1,-50,-250)">
        <path d="M265.02,838.99C263.07,838.99 261.1,838.97 259.08,838.93C250.72,838.76 237.65,835.16 229.94,830.91C226.36,828.94 208.6,818.47 210.15,805.87C210.69,801.48 213.74,795.61 225.18,792.59C236.07,789.72 247.49,793.87 257.57,797.54C264.97,800.23 271.95,802.78 277.36,802.26C280.84,801.93 283.98,804.49 284.31,807.99C284.64,811.49 282.08,814.61 278.57,814.94C270.29,815.73 261.61,812.57 253.21,809.51C244.48,806.33 235.46,803.05 228.43,804.9C224.2,806.02 223.02,807.22 222.79,807.49C222.89,809.27 227.51,815.01 236.08,819.73C241.96,822.97 253.05,826.04 259.33,826.17C304.71,827.1 322.04,817.07 328.59,808.48C334.58,800.63 332.33,792.71 332.23,792.37C331.15,789.02 333,785.46 336.35,784.38C339.69,783.3 343.3,785.17 344.38,788.53C344.56,789.1 348.78,802.69 338.97,815.87C327.58,831.23 302.7,838.99 265.02,838.99Z" style="fill:rgb(70,130,180);fill-rule:nonzero;"/>
    </g>
    <g transform="matrix(1,0,0,1,-50,-250)">
        <path d="M548.56,1210.43C547.73,1200.4 564.76,1194.82 582.96,1195.11C644.76,1196.08 624.75,1223.14 624.75,1223.14C624.75,1223.14 634.84,1250.99 625.19,1264.27C620.72,1270.42 629.78,1285.42 623.54,1294.18C614.54,1306.81 532.86,1326.07 471.41,1309.58C444.84,1302.45 440.89,1277.85 444.23,1255.15C449.12,1221.92 496.05,1204.59 535.34,1236.46C535.34,1236.46 536.95,1224.67 543.37,1218.18C549.79,1211.69 548.56,1210.43 548.56,1210.43Z" style="fill:white;fill-rule:nonzero;"/>
    </g>
    <g transform="matrix(1,0,0,1,-50,-250)">
        <path d="M534.59,1246.01C534.31,1246.01 534.02,1245.99 533.73,1245.95C530.584,1245.53 528.212,1242.81 528.212,1239.64C528.212,1239.35 528.231,1239.06 528.27,1238.78C531.36,1215.82 547.89,1211.34 548.59,1211.16L551.75,1223.51L551.87,1223.48C551.5,1223.59 542.81,1226.35 540.91,1240.48C540.46,1243.69 537.73,1246.01 534.59,1246.01Z" style="fill:rgb(70,130,180);fill-rule:nonzero;"/>
    </g>
    <g transform="matrix(1,0,0,1,-50,-250)">
        <path d="M524.73,1322.34C507.54,1322.34 488.32,1320.72 469.77,1315.74C444.4,1308.93 433.1,1287.09 437.93,1254.23C440.74,1235.15 458.64,1218.27 480.51,1214.09C493.87,1211.54 527.82,1210.59 554.53,1256.85C555.09,1257.82 555.385,1258.92 555.385,1260.04C555.385,1263.54 552.507,1266.41 549.01,1266.41C546.736,1266.41 544.628,1265.2 543.49,1263.23C527.56,1235.65 505.47,1222.3 482.9,1226.61C466.46,1229.75 452.55,1242.42 450.54,1256.09C446.66,1282.45 454.24,1298.38 473.07,1303.44C508.32,1312.9 546.56,1309.42 566.22,1306.51C598.4,1301.74 616.06,1293.73 618.36,1290.5C620.21,1287.9 619.31,1282.6 618.52,1277.92C617.49,1271.83 616.42,1265.53 620.04,1260.54C626.29,1251.93 621.08,1231.72 618.76,1225.32L617.6,1222.11L619.63,1219.36C619.63,1219.36 622.7,1214.94 620.9,1211.39C616.48,1202.69 590.66,1201.61 582.86,1201.49C568.67,1201.26 558.86,1204.72 555.77,1208.03C554.83,1209.03 554.88,1209.63 554.91,1209.92C555.09,1212.06 561.65,1219.89 580.51,1220.7C584.03,1220.85 586.75,1223.82 586.6,1227.34C586.45,1230.86 583.47,1233.59 579.96,1233.43C556.31,1232.41 543.06,1221.36 542.21,1210.96C541.86,1206.7 543.33,1202.67 546.47,1199.32C552.91,1192.44 566.56,1188.47 583.07,1188.75C610.78,1189.19 626.91,1194.76 632.36,1205.8C635.65,1212.46 633.99,1219.37 631.72,1223.9C634.31,1232.2 639.97,1254.67 630.41,1267.96C629.96,1269.15 630.66,1273.3 631.09,1275.79C632.24,1282.56 633.66,1290.99 628.75,1297.89C621.56,1307.99 591.58,1315.64 568.1,1319.12C557.67,1320.65 542.26,1322.34 524.73,1322.34Z" style="fill:rgb(70,130,180);fill-rule:nonzero;"/>
    </g>
    <g transform="matrix(1,0,0,1,-50,-250)">
        <path d="M477.7,1298.88C477.23,1298.88 476.76,1298.83 476.29,1298.72C464.95,1296.15 454.5,1292.45 445.21,1287.72C443.079,1286.63 441.733,1284.44 441.733,1282.05C441.733,1281.04 441.972,1280.05 442.43,1279.15C443.515,1277.02 445.712,1275.67 448.103,1275.67C449.11,1275.67 450.103,1275.91 451,1276.37C459.34,1280.62 468.8,1283.96 479.11,1286.3C482.54,1287.08 484.69,1290.49 483.92,1293.92C483.253,1296.81 480.664,1298.87 477.7,1298.88ZM520.54,1303.28C514.97,1303.28 509.37,1303.1 503.76,1302.69C500.445,1302.45 497.844,1299.66 497.844,1296.34C497.844,1296.18 497.849,1296.03 497.86,1295.88C498.11,1292.37 501.18,1289.74 504.67,1289.98C561.49,1294.06 620.34,1273.85 620.93,1273.65C624.26,1272.49 627.89,1274.25 629.04,1277.57C630.2,1280.89 628.44,1284.53 625.12,1285.68C622.85,1286.47 573.88,1303.28 520.54,1303.28ZM591.55,1214.73C590.25,1214.73 588.93,1214.63 587.61,1214.42C573.7,1212.26 564.17,1199.23 566.33,1185.32L584.66,1067.24C586.82,1053.33 599.84,1043.81 613.76,1045.96C627.67,1048.12 637.2,1061.15 635.04,1075.06L616.71,1193.14C614.76,1205.73 603.91,1214.73 591.55,1214.73Z" style="fill:rgb(70,130,180);fill-rule:nonzero;"/>
    </g>
    <g transform="matrix(0.155107,-0.987898,0.987898,0.155107,-680.162,1293.62)">
        <ellipse cx="587.39" cy="1140.23" rx="15" ry="8.62" style="fill:rgb(248,248,248);"/>
    </g>
    <g transform="matrix(1,0,0,1,-50,-250)">
        <path d="M754.86,1210.43C755.69,1200.4 738.66,1194.82 720.46,1195.11C658.66,1196.08 678.67,1223.14 678.67,1223.14C678.67,1223.14 668.58,1250.99 678.23,1264.27C682.7,1270.42 673.64,1285.42 679.88,1294.18C688.88,1306.81 770.56,1326.07 832.01,1309.58C858.58,1302.45 862.53,1277.85 859.19,1255.15C854.3,1221.92 807.37,1204.59 768.08,1236.46C768.08,1236.46 766.47,1224.67 760.05,1218.18C753.63,1211.69 754.86,1210.43 754.86,1210.43Z" style="fill:white;fill-rule:nonzero;"/>
    </g>
    <g transform="matrix(1,0,0,1,-50,-250)">
        <path d="M768.83,1246.01C765.69,1246.01 762.95,1243.69 762.52,1240.49C760.62,1226.36 751.93,1223.6 751.56,1223.49L751.68,1223.52L754.84,1211.17C755.54,1211.35 772.06,1215.83 775.16,1238.79C775.63,1242.28 773.18,1245.49 769.7,1245.96C769.41,1245.99 769.12,1246.01 768.83,1246.01Z" style="fill:rgb(70,130,180);fill-rule:nonzero;"/>
    </g>
    <g transform="matrix(1,0,0,1,-50,-250)">
        <path d="M778.7,1322.34C761.17,1322.34 745.76,1320.65 735.34,1319.11C711.86,1315.63 681.88,1307.98 674.69,1297.88C669.77,1290.98 671.2,1282.55 672.35,1275.78C672.77,1273.29 673.47,1269.14 673.03,1267.95C663.47,1254.66 669.13,1232.2 671.72,1223.89C669.46,1219.36 667.79,1212.44 671.08,1205.79C676.54,1194.75 692.66,1189.18 720.37,1188.74C736.87,1188.47 750.53,1192.43 756.97,1199.31C760.11,1202.66 761.58,1206.69 761.23,1210.95C760.37,1221.34 747.13,1232.4 723.48,1233.42C720.01,1233.57 716.99,1230.84 716.84,1227.33C716.69,1223.84 719.439,1220.84 722.93,1220.69C741.79,1219.88 748.35,1212.05 748.53,1209.91C748.55,1209.62 748.6,1209.02 747.67,1208.02C744.58,1204.71 734.75,1201.27 720.58,1201.48C712.77,1201.6 686.95,1202.68 682.54,1211.38C680.74,1214.93 683.82,1219.36 683.85,1219.4L685.88,1222.15L684.68,1225.31C682.37,1231.72 677.18,1251.96 683.4,1260.53C687.02,1265.51 685.95,1271.81 684.92,1277.9C684.13,1282.58 683.23,1287.88 685.08,1290.48C687.38,1293.71 705.04,1301.72 737.22,1306.49C756.88,1309.4 795.12,1312.88 830.37,1303.42C849.2,1298.37 856.78,1282.44 852.9,1256.07C850.89,1242.41 836.98,1229.73 820.54,1226.59C797.97,1222.28 775.87,1235.62 759.95,1263.21C758.812,1265.18 756.704,1266.4 754.43,1266.4C753.31,1266.4 752.21,1266.1 751.24,1265.54C749.271,1264.4 748.054,1262.29 748.054,1260.02C748.054,1258.9 748.35,1257.8 748.91,1256.83C775.62,1210.58 809.58,1211.52 822.93,1214.07C844.79,1218.25 862.7,1235.13 865.51,1254.21C870.34,1287.07 859.04,1308.92 833.67,1315.72C815.11,1320.72 795.88,1322.34 778.7,1322.34Z" style="fill:rgb(70,130,180);fill-rule:nonzero;"/>
    </g>
    <g transform="matrix(1,0,0,1,-50,-250)">
        <path d="M825.72,1298.88C822.81,1298.88 820.18,1296.87 819.51,1293.91C819.404,1293.45 819.351,1292.97 819.351,1292.5C819.351,1289.53 821.426,1286.94 824.32,1286.29C834.63,1283.95 844.08,1280.61 852.43,1276.36C855.57,1274.76 859.4,1276.01 861,1279.14C862.6,1282.28 861.35,1286.11 858.22,1287.71C848.94,1292.44 838.48,1296.14 827.14,1298.71C826.675,1298.83 826.199,1298.88 825.72,1298.88ZM782.88,1303.28C729.53,1303.28 680.57,1286.48 678.3,1285.69C674.98,1284.53 673.22,1280.9 674.38,1277.58C675.54,1274.26 679.17,1272.5 682.49,1273.65C683.08,1273.85 742.02,1294.06 798.75,1289.98C802.26,1289.74 805.31,1292.37 805.56,1295.88C805.571,1296.03 805.576,1296.18 805.576,1296.34C805.576,1299.66 802.975,1302.45 799.66,1302.69C794.06,1303.09 788.45,1303.28 782.88,1303.28ZM711.87,1214.73C699.52,1214.73 688.67,1205.73 686.71,1193.15L668.39,1075.07C666.23,1061.16 675.76,1048.13 689.67,1045.97C703.59,1043.81 716.61,1053.34 718.77,1067.25L737.09,1185.33C739.25,1199.24 729.72,1212.27 715.81,1214.43C714.49,1214.63 713.17,1214.73 711.87,1214.73Z" style="fill:rgb(70,130,180);fill-rule:nonzero;"/>
    </g>
    <g transform="matrix(0.9879,-0.15509,0.15509,0.9879,-218.197,-125.132)">
        <ellipse cx="716.04" cy="1140.23" rx="8.62" ry="15" style="fill:rgb(248,248,248);"/>
    </g>
    <g transform="matrix(1,0,0,1,-50,-250)">
        <path d="M862.93,622.78C853.39,584.61 839.13,490.69 777.06,448.26C745.61,426.77 704.37,430.63 669.57,436.52C646.23,437.11 626.41,440.61 609.49,446.3C621.91,443.09 635.88,441.29 651.7,441.29C781.25,441.29 788.96,560.21 802.84,615.74C819.58,682.7 892.48,777.19 889.24,911.11C886.9,1007.88 801.37,1102.27 651.92,1102.26C814.74,1117.3 939.35,1008.67 941.69,911.89C944.94,777.98 879.67,689.74 862.93,622.78Z" style="fill:rgb(108,227,133);fill-rule:nonzero;"/>
    </g>
    <g transform="matrix(1,0,0,1,-50,-250)">
        <path d="M687.23,1109.82C678.15,1109.82 669.1,1109.42 660.12,1108.6L661.27,1095.91C699.98,1099.42 740.18,1094.98 777.56,1083.07C815.01,1071.13 848.76,1051.96 875.16,1027.62C916.85,989.19 938.62,940.22 938.11,886.01C937.3,798.41 906.25,733.68 881.3,681.67C868.31,654.59 857.1,631.21 851.39,608.4C849.74,601.79 848.17,594.3 846.51,586.38C840.28,556.57 832.52,519.48 812.51,489.84C789.31,455.49 754.61,438.78 706.43,438.78C685.25,438.78 632.58,445.47 618.26,450.75L613.85,438.79C629.54,433 684.05,426.03 706.43,426.03C734.27,426.03 758.62,431.47 778.79,442.2C796.34,451.54 811.24,465.16 823.08,482.69C844.5,514.4 852.54,552.86 859,583.76C860.63,591.56 862.17,598.93 863.76,605.3C869.15,626.86 880.11,649.7 892.79,676.15C918.29,729.3 950.02,795.45 950.86,885.89C951.4,943.8 928.21,996.04 883.8,1036.99C856.04,1062.58 820.64,1082.72 781.43,1095.22C751.11,1104.87 719,1109.82 687.23,1109.82Z" style="fill:rgb(70,130,180);fill-rule:nonzero;"/>
    </g>
    <g transform="matrix(1,0,0,1,-50,-250)">
        <path d="M889.27,911.15C887.36,992.21 826.95,1071.48 719.63,1095.19C698.86,1099.65 676.3,1102.2 651.95,1102.2L651.44,1102.2C645.45,1102.2 639.59,1102.07 633.85,1101.69C495.31,1094.68 416.42,1004.06 414.12,911.15C410.93,777.2 483.84,682.63 500.53,615.72C513.78,562.83 521.43,452.58 633.84,442.13C639.57,441.49 645.44,441.24 651.68,441.24C781.3,441.24 788.94,560.15 802.84,615.72C819.55,682.63 892.45,777.2 889.27,911.15Z" style="fill:rgb(108,227,133);fill-rule:nonzero;"/>
    </g>
    <g transform="matrix(1,0,0,1,-50,-250)">
        <path d="M690.9,445.91C686.94,413.05 697.31,347.75 758.45,350.6C768.42,348.71 770.75,334.11 767.43,316.59C764.11,299.08 751.5,285.72 741.52,287.61C672.05,299.33 648.38,364.12 660.77,436.7L690.9,445.91Z" style="fill:white;fill-rule:nonzero;"/>
    </g>
    <g transform="matrix(1,0,0,1,-50,-250)">
        <path d="M754.58,347.12C754.58,347.12 726.64,319.73 741.25,287.21C741.25,287.21 763.85,289.36 767.53,313.78C771.22,338.19 754.58,347.12 754.58,347.12Z" style="fill:rgb(70,130,180);fill-rule:nonzero;"/>
    </g>
    <g transform="matrix(1,0,0,1,-50,-250)">
        <path d="M690.9,448.89C687.72,448.89 684.97,446.51 684.58,443.28C682.25,423.92 684.3,384.7 706.79,360.49C719.64,346.66 736.82,340.04 757.79,340.8C762.3,339.17 763.76,328.07 761.17,314.38C758.31,299.29 747.99,289.48 742.71,290.48L742.58,290.5C718.27,294.6 699.13,306.28 685.69,325.22C666.77,351.88 660.25,392.62 667.83,436.99C667.89,437.344 667.921,437.702 667.921,438.061C667.921,441.154 665.669,443.821 662.62,444.34C659.175,444.925 655.859,442.574 655.27,439.13C647.01,390.75 654.13,347.67 675.3,317.84C690.76,296.05 712.67,282.63 740.41,277.94C754.22,275.38 769.76,291.28 773.7,312C778.15,335.45 772.89,350.95 759.65,353.46L758.91,353.6L758.16,353.57C740.64,352.75 726.5,358 716.13,369.17C708.13,377.78 702.23,390.14 699.09,404.91C696.53,416.9 695.86,430.33 697.24,441.76C697.66,445.25 695.17,448.43 691.68,448.85C691.41,448.87 691.15,448.89 690.9,448.89Z" style="fill:rgb(70,130,180);fill-rule:nonzero;"/>
    </g>
    <g transform="matrix(1,0,0,1,-50,-250)">
        <path d="M750.12,351.67C748.85,350.42 719.19,320.75 735.44,284.6L747.06,289.83C734.49,317.8 758.04,341.59 759.05,342.59L750.12,351.67ZM696.02,432.12C696.02,432.12 692.55,441.04 679.8,445.67C679.8,445.67 714.9,446.37 724.39,437.45L696.02,432.12Z" style="fill:rgb(70,130,180);fill-rule:nonzero;"/>
    </g>
    <g transform="matrix(1,0,0,1,-50,-250)">
        <path d="M651.95,1108.63L651.5,1108.63C580.06,1108.63 518.49,1087.58 473.45,1047.75C452.94,1029.61 436.8,1008.34 425.48,984.54C414.37,961.18 408.42,936.52 407.81,911.26C405.56,818.27 439.18,744.57 466.19,685.34C478.55,658.23 489.23,634.82 494.39,614.19C495.98,607.82 497.52,600.45 499.16,592.65C505.62,561.75 513.66,523.3 535.08,491.58C546.92,474.05 561.82,460.42 579.37,451.09C599.54,440.36 623.89,434.92 651.73,434.92C679.57,434.92 703.92,440.36 724.09,451.09C741.64,460.43 756.54,474.05 768.38,491.58C789.8,523.29 797.84,561.75 804.3,592.65C805.93,600.45 807.47,607.82 809.07,614.19C814.23,634.82 824.91,658.23 837.27,685.34C838.71,688.49 840.16,691.69 841.64,694.93C843.1,698.13 841.68,701.91 838.47,703.37C835.285,704.815 831.476,703.384 830.03,700.2C828.56,696.97 827.11,693.78 825.67,690.64C813.04,662.96 802.14,639.05 796.7,617.29C795.05,610.68 793.48,603.19 791.82,595.27C785.59,565.46 777.83,528.37 757.82,498.73C734.62,464.38 699.92,447.68 651.74,447.68C603.56,447.68 568.86,464.38 545.66,498.73C525.65,528.37 517.89,565.46 511.66,595.27C510,603.2 508.44,610.68 506.78,617.29C501.34,639.05 490.44,662.96 477.81,690.64C451.34,748.68 418.39,820.91 420.57,910.96C421.14,934.42 426.67,957.34 437.01,979.07C447.59,1001.31 462.7,1021.21 481.92,1038.21C524.59,1075.95 583.24,1095.9 651.53,1095.9L651.98,1095.9C708.19,1095.9 758.96,1081.98 798.81,1055.64C835.02,1031.7 861.05,998.76 874.08,960.37C875.204,957.061 878.849,955.26 882.16,956.38C885.469,957.504 887.27,961.149 886.15,964.46C872.2,1005.55 844.43,1040.76 805.84,1066.26C763.87,1093.98 710.66,1108.63 651.95,1108.63Z" style="fill:rgb(70,130,180);fill-rule:nonzero;"/>
    </g>
    <g transform="matrix(1,0,0,1,-50,-190)">
        <path d="M605.52,604.56C615.88,596.61 623.98,579.26 625.7,558.6C628.14,529.32 616.86,504.47 600.5,503.11C584.14,501.75 568.9,524.38 566.46,553.66C565.09,570.13 568.05,585.2 573.83,595.47L605.52,604.56ZM689.24,613.89C680.22,604.45 674.88,586.06 676.34,565.38C678.41,536.07 693.37,513.25 709.74,514.4C726.11,515.56 737.71,540.26 735.63,569.57C734.46,586.06 729.22,600.49 721.94,609.76L689.24,613.89Z" style="fill:white;fill-rule:nonzero;"/>
    </g>
    <g transform="matrix(1,0,0,1,-50,-190)">
        <path d="M684.63,618.3C674.05,607.23 668.43,586.78 669.98,564.94C672.34,531.62 689.99,506.62 710.19,508.06C720.52,508.79 729.46,516.13 735.37,528.74C740.72,540.13 743.07,554.8 741.99,570.04C740.78,587.18 735.3,603.1 726.96,613.72L716.94,605.85C723.75,597.18 728.24,583.8 729.28,569.15C730.21,556.04 728.28,543.62 723.84,534.16C720.03,526.04 714.73,521.17 709.29,520.78C695.57,519.81 684.26,543.75 682.69,565.85C681.41,583.94 685.79,601.08 693.84,609.51L684.63,618.3Z" style="fill:rgb(70,130,180);fill-rule:nonzero;"/>
    </g>
    <g transform="matrix(1,0,0,1,-50,-190)">
        <path d="M719.45,536.78C706.36,534.73 693.29,548.7 690.25,567.99C694.68,570.58 701.58,572.94 711.44,571.61C711.44,571.61 701.42,581.83 689.88,580.2C691.09,594.14 698.23,605.12 708.48,606.73C721.58,608.79 734.66,594.79 737.69,575.48C740.72,556.17 732.55,538.83 719.45,536.78Z" style="fill:rgb(70,130,180);fill-rule:nonzero;"/>
    </g>
    <g transform="matrix(1,0,0,1,-50,-190)">
        <path d="M734.34,625.85C732.334,625.854 730.44,624.907 729.24,623.3C719.32,610.09 700,616.72 689.37,621.84C688.506,622.257 687.559,622.473 686.6,622.473C683.104,622.473 680.227,619.596 680.227,616.1C680.227,613.658 681.63,611.421 683.83,610.36C707.92,598.74 728.19,600.67 739.43,615.65C740.256,616.753 740.703,618.095 740.703,619.473C740.703,622.966 737.833,625.842 734.34,625.85ZM571.63,654.72C585.95,681.17 613.11,733.48 642.21,735.03C684.04,737.26 711.35,662.53 723.04,656.09L714.98,650.95C714.98,650.95 705.06,651.91 683.69,663.95C668.88,672.29 615.95,692.38 578.09,652.82C573.47,648.01 569.5,650.78 571.63,654.72ZM609.39,609.62L601.64,599.51C610.89,592.42 617.84,576.16 619.35,558.08C621.19,536.01 613.69,510.61 599.97,509.47C594.56,509.01 588.56,513.02 583.55,520.46C577.72,529.12 573.9,541.1 572.81,554.2C571.59,568.85 573.98,582.75 579.38,592.36L568.27,598.6C561.66,586.83 558.68,570.26 560.11,553.14C561.38,537.91 565.95,523.78 572.98,513.34C580.76,501.79 590.71,495.9 601.04,496.77C621.21,498.45 634.83,525.85 632.06,559.14C630.23,580.96 621.55,600.3 609.39,609.62Z" style="fill:rgb(70,130,180);fill-rule:nonzero;"/>
    </g>
    <g transform="matrix(1,0,0,1,-50,-190)">
        <path d="M607.52,529.71C594.44,527.82 581.58,541.92 578.78,561.2C583.23,563.73 590.15,565.99 599.96,564.55C599.96,564.55 590.09,574.87 578.56,573.39C579.94,587.27 587.2,598.15 597.44,599.62C610.53,601.51 623.4,587.39 626.19,568.08C628.97,548.77 620.61,531.59 607.52,529.71Z" style="fill:rgb(70,130,180);fill-rule:nonzero;"/>
    </g>
    <g transform="matrix(1,0,0,1,-50,-190)">
        <path d="M563.95,616.42C560.54,616.42 557.71,613.72 557.59,610.28C557.32,603.11 561.59,596.12 568.47,592.47C574.97,589.02 589.22,585.66 611.55,602C613.19,603.2 614.161,605.113 614.161,607.145C614.161,608.499 613.729,609.818 612.93,610.91C611.732,612.551 609.818,613.523 607.787,613.523C606.432,613.523 605.112,613.091 604.02,612.29C591.98,603.48 580.93,600.29 574.44,603.73C571.5,605.29 570.25,607.91 570.32,609.81C570.449,613.302 567.682,616.281 564.19,616.41C564.11,616.42 564.03,616.42 563.95,616.42ZM727.36,668.2C724.77,668.2 722.33,666.61 721.38,664.04C716.91,651.95 706.03,652.7 704.81,652.83C701.31,653.26 698.17,650.77 697.74,647.28C697.31,643.79 699.82,640.6 703.32,640.17C710.87,639.24 726.86,642.11 733.34,659.61C734.56,662.91 732.88,666.58 729.58,667.8C728.84,668.08 728.1,668.2 727.36,668.2ZM739.45,511.75C737.29,511.75 735.19,510.65 733.99,508.67C728.33,499.29 721.74,494.03 714.39,493.03C701.98,491.34 690.28,502 690.17,502.11C687.626,504.507 683.562,504.389 681.16,501.85C680.043,500.668 679.42,499.101 679.42,497.475C679.42,495.721 680.144,494.043 681.42,492.84C682.07,492.23 697.52,477.86 716.11,480.4C727.46,481.95 737.14,489.24 744.9,502.09C746.72,505.1 745.75,509.02 742.74,510.84C741.745,511.433 740.608,511.747 739.45,511.75ZM629.43,498.93C627.03,498.93 624.73,497.57 623.65,495.25C623.52,494.98 617.49,482.59 606.52,480.01C599.51,478.36 591.52,481.04 582.74,487.96C581.616,488.847 580.226,489.33 578.794,489.33C576.843,489.33 574.996,488.433 573.79,486.9C572.903,485.776 572.42,484.386 572.42,482.954C572.42,481.003 573.317,479.156 574.85,477.95C586.87,468.47 598.54,464.99 609.55,467.62C626.61,471.69 634.86,489.12 635.2,489.86C636.68,493.05 635.29,496.84 632.1,498.32C631.24,498.74 630.33,498.93 629.43,498.93Z" style="fill:rgb(70,130,180);fill-rule:nonzero;"/>
    </g>
    <g transform="matrix(1,0,0,1,-50,-250)">
        <path d="M642.874,687.584C637.984,684.458 633.274,683.843 629.61,685.84C626.53,687.52 624.46,690.98 624.46,694.44C624.46,697.85 626.38,700.71 630.01,702.71C632.15,703.89 636.42,703.56 638.92,701.35C641.542,699.035 645.605,699.288 647.92,701.91C650.25,704.55 650,708.58 647.36,710.9C643.47,714.33 638.2,716.13 633.08,716.13C629.82,716.13 626.61,715.4 623.87,713.89C616.14,709.64 611.7,702.55 611.71,694.44C611.72,686.34 616.35,678.58 623.5,674.67C630.202,671.007 638.179,671.072 645.9,674.723L650.28,673.89L656.52,672.61C657.32,676.53 656.97,684.24 650.55,688.27C649.5,688.93 648.33,689.24 647.17,689.24C645.583,689.24 644.051,688.649 642.874,687.584Z" style="fill:rgb(70,130,180);"/>
    </g>
    <g transform="matrix(1,0,0,1,-50,-190)">
        <path d="M614.58,686.5C614.58,686.5 617.21,693.77 624.01,696.14C633.57,699.48 675.51,698.03 691.03,676.67L694.58,668.15C694.58,668.15 681.84,679.09 660.53,685.08C640.89,690.6 614.58,686.5 614.58,686.5ZM651.47,706.2C647.6,709.99 648.51,711.18 647.28,711.45C645.23,711.9 645.29,707.66 646.49,705.78C644.77,705.23 642.15,704.87 638.28,705.57C631.04,706.89 628.76,718.62 642.96,721C656.92,723.35 664.75,712.42 662.72,707.06C661.25,703.23 654.96,704.92 651.47,706.2Z" style="fill:white;fill-rule:nonzero;"/>
    </g>
    <g transform="matrix(1,0,0,1,-50,-250)">
        <path d="M1132.39,719.45L1048.07,930.81L885.41,865.92L990.54,602.41L1132.39,719.45Z" style="fill:rgb(70,130,180);fill-rule:nonzero;"/>
    </g>
    <g transform="matrix(1,0,0,1,-50,-250)">
        <path d="M1051.63,939.09L877.13,869.48L987.85,591.93L1140.03,717.49L1051.63,939.09ZM893.69,862.37L1044.51,922.54L1124.74,721.41L993.22,612.89L893.69,862.37Z" style="fill:rgb(70,130,180);fill-rule:nonzero;"/>
    </g>
    <g transform="matrix(0.404104,-0.914713,0.914713,0.404104,-174.188,1064.87)">
        <rect x="814.44" y="656.76" width="265.16" height="191.94" style="fill:white;"/>
    </g>
    <g transform="matrix(1,0,0,1,-50,-250)">
        <path d="M984.49,921.18L797.26,838.48L909.55,584.27L1096.78,666.98L984.49,921.18ZM814.07,831.97L977.99,904.38L1079.98,673.49L916.06,601.08L814.07,831.97Z" style="fill:rgb(70,130,180);fill-rule:nonzero;"/>
    </g>
    <g transform="matrix(0.404104,-0.914713,0.914713,0.404104,-224.86,1130.47)">
        <rect x="839.46" y="728.45" width="265.16" height="191.94" style="fill:white;"/>
    </g>
    <g transform="matrix(1,0,0,1,-50,-250)">
        <path d="M1009.51,992.88L822.28,910.17L934.57,655.96L1121.8,738.66L1009.51,992.88ZM839.08,903.66L1003,976.07L1104.99,745.18L941.07,672.78L839.08,903.66Z" style="fill:rgb(70,130,180);fill-rule:nonzero;"/>
    </g>
    <g transform="matrix(0.262897,-0.964824,0.964824,0.262897,-103.092,1223.17)">
        <rect x="805.04" y="675.34" width="265.16" height="191.94" style="fill:white;"/>
    </g>
    <g transform="matrix(1,0,0,1,-50,-250)">
        <path d="M999.82,932.28L802.33,878.46L875.4,610.34L1072.89,664.16L999.82,932.28ZM817.99,869.52L990.88,916.63L1057.24,673.1L884.35,625.99L817.99,869.52Z" style="fill:rgb(70,130,180);fill-rule:nonzero;"/>
    </g>
    <g transform="matrix(0.370509,-0.928829,0.928829,0.370509,-158.939,1132.68)">
        <rect x="833.04" y="675.72" width="265.16" height="191.94" style="fill:white;"/>
    </g>
    <g transform="matrix(1,0,0,1,-50,-250)">
        <path d="M1009.19,938.67L819.07,862.83L857.64,766.16C858.94,762.89 862.66,761.3 865.92,762.6C869.19,763.9 870.78,767.61 869.48,770.88L835.64,855.71L1002.08,922.11L1095.61,687.67L929.17,621.27L894.04,709.32C892.74,712.59 889.03,714.18 885.76,712.88C882.49,711.58 880.9,707.87 882.2,704.6L922.05,604.71L1112.17,680.55L1009.19,938.67Z" style="fill:rgb(70,130,180);fill-rule:nonzero;"/>
    </g>
    <g transform="matrix(0.370509,-0.928829,0.928829,0.370509,-178.213,1182.38)">
        <rect x="860.06" y="714.79" width="265.16" height="191.94" style="fill:rgb(70,130,180);"/>
    </g>
    <g transform="matrix(0.370509,-0.928829,0.928829,0.370509,-97.5726,1164.68)">
        <rect x="987.68" y="691.46" width="64.45" height="101.91" style="fill:white;"/>
    </g>
    <g transform="matrix(0.370509,-0.928829,0.928829,0.370509,-242.272,1196.44)">
        <rect x="966.02" y="821.09" width="9.93" height="87.92" style="fill:white;"/>
    </g>
    <g transform="matrix(0.370509,-0.928829,0.928829,0.370509,-262.875,1200.96)">
        <rect x="959.05" y="838.55" width="9.93" height="87.92" style="fill:white;"/>
    </g>
    <g transform="matrix(1,0,0,1,-50,-250)">
        <path d="M1036.21,977.74L846.09,901.9L949.06,643.78L1139.18,719.62L1036.21,977.74ZM862.66,894.78L1029.1,961.18L1122.63,726.74L956.19,660.34L862.66,894.78Z" style="fill:rgb(70,130,180);fill-rule:nonzero;"/>
    </g>
    <g transform="matrix(1,0,0,1,-50,-250)">
        <path d="M1052.83,861.05C1041.3,858.83 1017.17,848.52 1012.76,861.4C1008.69,873.29 1016.25,885.46 1046.16,891.11C1075.7,896.69 1091.18,883.78 1084.57,870.32C1078.76,858.47 1067.22,863.82 1052.83,861.05Z" style="fill:rgb(248,248,248);fill-rule:nonzero;"/>
    </g>
    <g transform="matrix(1,0,0,1,-50,-250)">
        <path d="M1057,898.94C1052.96,898.94 1048.78,898.39 1044.55,897.27C1024.6,892.03 1012.41,884.54 1008.32,875C1005.96,869.51 1006.36,863.61 1009.46,857.96C1018.05,842.33 1037.77,849.16 1049.55,853.23C1051.41,853.88 1053.17,854.48 1054.7,854.95C1057.75,855.88 1060.08,855.2 1063.3,854.26C1068.19,852.84 1075.59,850.68 1083.69,858.05C1090.65,864.38 1092.08,874.1 1087.35,882.82C1084.06,888.89 1078.25,893.73 1070.99,896.47C1066.64,898.12 1061.92,898.94 1057,898.94ZM1027.42,860.88C1024.27,860.88 1021.9,861.79 1020.63,864.11C1019.08,866.94 1019.49,868.73 1020.03,869.98C1021.15,872.58 1026.09,879.25 1047.79,884.95C1062.17,888.73 1072.57,883.35 1076.15,876.75C1077.28,874.67 1078.65,870.7 1075.12,867.49C1072.3,864.93 1071.15,865.26 1066.87,866.51C1062.98,867.64 1057.66,869.19 1050.97,867.14C1049.23,866.61 1047.36,865.96 1045.39,865.28C1038.42,862.88 1032.07,860.88 1027.42,860.88Z" style="fill:rgb(70,130,180);fill-rule:nonzero;"/>
    </g>
    <g transform="matrix(1,0,0,1,-50,-250)">
        <path d="M1070.9,832.43C1055.84,829.15 1024.48,814.83 1018.27,831.6C1012.54,847.08 1022.08,863.3 1061.17,871.68C1099.77,879.95 1120.52,863.5 1112.27,845.62C1105.02,829.89 1089.71,836.53 1070.9,832.43Z" style="fill:rgb(248,248,248);fill-rule:nonzero;"/>
    </g>
    <g transform="matrix(1,0,0,1,-50,-250)">
        <path d="M1076.56,880.34C1071,880.34 1065.23,879.5 1059.4,877.81C1034,870.46 1018.67,860.63 1013.84,848.58C1011.16,841.88 1011.82,834.76 1015.76,827.99C1026.69,809.21 1050.43,818.07 1066.13,823.94C1068.57,824.85 1070.88,825.72 1072.91,826.39C1077.44,827.9 1081.12,826.93 1085.37,825.81C1091.77,824.11 1100.54,821.79 1110.13,830.96C1118.37,838.83 1119.81,850.69 1113.78,861.16C1109.5,868.6 1102.09,874.46 1092.93,877.66C1087.81,879.44 1082.29,880.34 1076.56,880.34ZM1036.96,829.4C1032.41,829.4 1028.88,830.81 1026.79,834.4C1024.81,837.8 1024.46,840.79 1025.68,843.84C1027.53,848.47 1034.84,857.44 1062.95,865.57C1082.74,871.29 1097.45,864 1102.74,854.8C1104.22,852.22 1107.05,845.64 1101.33,840.17C1096.9,835.94 1094.48,836.58 1088.64,838.13C1083.47,839.5 1077.04,841.2 1068.89,838.49C1066.65,837.74 1064.24,836.84 1061.69,835.89C1052.19,832.33 1043.52,829.4 1036.96,829.4Z" style="fill:rgb(70,130,180);fill-rule:nonzero;"/>
    </g>
    <g transform="matrix(1,0,0,1,-50,-250)">
        <path d="M1085.82,795.3C1070.76,792.02 1039.4,777.7 1033.2,794.47C1027.47,809.95 1037.01,826.17 1076.1,834.55C1114.7,842.82 1135.45,826.37 1127.2,808.49C1119.94,792.75 1104.63,799.39 1085.82,795.3Z" style="fill:rgb(248,248,248);fill-rule:nonzero;"/>
    </g>
    <g transform="matrix(1,0,0,1,-50,-250)">
        <path d="M1091.48,843.2C1085.92,843.2 1080.15,842.36 1074.32,840.67C1048.92,833.32 1033.59,823.49 1028.76,811.44C1026.08,804.74 1026.74,797.62 1030.68,790.85C1041.61,772.07 1065.35,780.93 1081.05,786.8C1083.49,787.71 1085.8,788.58 1087.83,789.25C1092.37,790.76 1096.04,789.79 1100.29,788.66C1106.69,786.96 1115.46,784.64 1125.05,793.81C1133.29,801.68 1134.73,813.54 1128.7,824.01C1124.42,831.45 1117.02,837.31 1107.85,840.51C1102.73,842.3 1097.21,843.2 1091.48,843.2ZM1051.88,792.26C1047.33,792.26 1043.8,793.67 1041.71,797.26C1039.73,800.66 1039.38,803.65 1040.6,806.7C1042.45,811.32 1049.76,820.3 1077.87,828.43C1097.66,834.15 1112.37,826.86 1117.66,817.66C1119.14,815.08 1121.97,808.5 1116.25,803.03C1111.82,798.8 1109.4,799.44 1103.56,800.99C1098.39,802.36 1091.95,804.06 1083.81,801.34C1081.57,800.59 1079.16,799.69 1076.61,798.74C1067.11,795.2 1058.44,792.26 1051.88,792.26Z" style="fill:rgb(70,130,180);fill-rule:nonzero;"/>
    </g>
</svg>
